<?xml version="1.0" encoding="UTF-8"?>
<svg width="512px" height="512px" viewBox="0 0 512 512" version="1.1" xmlns="http://www.w3.org/2000/svg" xmlns:xlink="http://www.w3.org/1999/xlink">
    <!-- Generator: Sketch 64 (93537) - https://sketch.com -->
    <title>MacIcon@1x</title>
    <desc>Created with Sketch.</desc>
    <defs>
        <linearGradient x1="50%" y1="0%" x2="50%" y2="100%" id="linearGradient-1">
            <stop stop-color="#3399CC" offset="0%"></stop>
            <stop stop-color="#0169A4" offset="100%"></stop>
        </linearGradient>
        <filter x="-2.9%" y="-3.3%" width="105.9%" height="106.7%" filterUnits="objectBoundingBox" id="filter-2">
            <feOffset dx="2" dy="2" in="SourceAlpha" result="shadowOffsetOuter1"></feOffset>
            <feGaussianBlur stdDeviation="2" in="shadowOffsetOuter1" result="shadowBlurOuter1"></feGaussianBlur>
            <feColorMatrix values="0 0 0 0 0   0 0 0 0 0   0 0 0 0 0  0 0 0 0.5 0" type="matrix" in="shadowBlurOuter1" result="shadowMatrixOuter1"></feColorMatrix>
            <feMerge>
                <feMergeNode in="shadowMatrixOuter1"></feMergeNode>
                <feMergeNode in="SourceGraphic"></feMergeNode>
            </feMerge>
        </filter>
    </defs>
    <g id="MacIcon" stroke="none" stroke-width="1" fill="none" fill-rule="evenodd">
        <g id="Smooth-Corners备份" fill="url(#linearGradient-1)">
            <path d="M256,-5.31386078e-14 C397.384896,-7.91105918e-14 512,114.615104 512,256 C512,397.384896 397.384896,512 256,512 C114.615104,512 -1.81110825e-14,397.384896 -3.54257385e-14,256 C-5.27403946e-14,114.615104 114.615104,-2.71666237e-14 256,-5.31386078e-14 Z" id="Smooth-Corners"></path>
        </g>
        <g id="编组" filter="url(#filter-2)" transform="translate(49.000000, 76.000000)">
            <path d="M210.863946,24.9482068 C216.386794,24.9482068 220.863946,29.4253593 220.863946,34.9482068 L220.863946,316.786647 C220.863946,322.309494 216.386794,326.786647 210.863946,326.786647 L98.3538133,326.786647 C92.8309658,326.786647 88.3538133,322.309494 88.3538133,316.786647 L88.3538133,34.9482068 C88.3538133,29.4253593 92.8309658,24.9482068 98.3538133,24.9482068 L210.863946,24.9482068 Z M155.110812,41.9955606 C150.952669,41.9955606 147.581827,45.3627783 147.581827,49.5164519 C147.581827,53.6701256 150.952669,57.0373433 155.110812,57.0373433 C159.268956,57.0373433 162.639797,53.6701256 162.639797,49.5164519 C162.639797,45.3627783 159.268956,41.9955606 155.110812,41.9955606 Z" id="形状结合" fill="#FFF9EA" transform="translate(154.608880, 175.867427) rotate(-45.000000) translate(-154.608880, -175.867427) "></path>
            <path d="M236.950702,17.0473538 C242.47355,17.0473538 246.950702,21.5245063 246.950702,27.0473538 L246.950702,308.885794 C246.950702,314.408641 242.47355,318.885794 236.950702,318.885794 L124.440569,318.885794 C118.917722,318.885794 114.440569,314.408641 114.440569,308.885794 L114.440569,27.0473538 C114.440569,21.5245063 118.917722,17.0473538 124.440569,17.0473538 L236.950702,17.0473538 Z M181.197568,34.0947075 C177.039425,34.0947075 173.668583,37.4619253 173.668583,41.6155989 C173.668583,45.7692725 177.039425,49.1364903 181.197568,49.1364903 C185.355712,49.1364903 188.726553,45.7692725 188.726553,41.6155989 C188.726553,37.4619253 185.355712,34.0947075 181.197568,34.0947075 Z" id="形状结合备份" fill="#B0A696" transform="translate(180.695636, 167.966574) rotate(-35.000000) translate(-180.695636, -167.966574) "></path>
            <path d="M265.058912,14.0389972 C270.58176,14.0389972 275.058912,18.5161497 275.058912,24.0389972 L275.058912,305.877437 C275.058912,311.400285 270.58176,315.877437 265.058912,315.877437 L152.548779,315.877437 C147.025932,315.877437 142.548779,311.400285 142.548779,305.877437 L142.548779,24.0389972 C142.548779,18.5161497 147.025932,14.0389972 152.548779,14.0389972 L265.058912,14.0389972 Z M209.305778,31.086351 C205.147635,31.086351 201.776793,34.4535687 201.776793,38.6072423 C201.776793,42.7609159 205.147635,46.1281337 209.305778,46.1281337 C213.463922,46.1281337 216.834763,42.7609159 216.834763,38.6072423 C216.834763,34.4535687 213.463922,31.086351 209.305778,31.086351 Z" id="形状结合备份-2" fill="#52057F" transform="translate(208.803846, 164.958217) rotate(-25.000000) translate(-208.803846, -164.958217) "></path>
            <path d="M292.163258,15.0417827 C297.686105,15.0417827 302.163258,19.5189352 302.163258,25.0417827 L302.163258,306.880223 C302.163258,312.40307 297.686105,316.880223 292.163258,316.880223 L179.653125,316.880223 C174.130277,316.880223 169.653125,312.40307 169.653125,306.880223 L169.653125,25.0417827 C169.653125,19.5189352 174.130277,15.0417827 179.653125,15.0417827 L292.163258,15.0417827 Z M236.410123,32.0891365 C232.25198,32.0891365 228.881139,35.4563542 228.881139,39.6100279 C228.881139,43.7637015 232.25198,47.1309192 236.410123,47.1309192 C240.568267,47.1309192 243.939108,43.7637015 243.939108,39.6100279 C243.939108,35.4563542 240.568267,32.0891365 236.410123,32.0891365 Z" id="形状结合备份-3" fill="#FFC719" transform="translate(235.908191, 165.961003) rotate(-15.000000) translate(-235.908191, -165.961003) "></path>
            <path d="M319.267603,21.0584958 C324.79045,21.0584958 329.267603,25.5356483 329.267603,31.0584958 L329.267603,312.896936 C329.267603,318.419783 324.79045,322.896936 319.267603,322.896936 L206.75747,322.896936 C201.234623,322.896936 196.75747,318.419783 196.75747,312.896936 L196.75747,31.0584958 C196.75747,25.5356483 201.234623,21.0584958 206.75747,21.0584958 L319.267603,21.0584958 Z M263.514469,38.1058496 C259.356325,38.1058496 255.985484,41.4730673 255.985484,45.6267409 C255.985484,49.7804146 259.356325,53.1476323 263.514469,53.1476323 C267.672612,53.1476323 271.043454,49.7804146 271.043454,45.6267409 C271.043454,41.4730673 267.672612,38.1058496 263.514469,38.1058496 Z" id="形状结合备份-4" fill="#76B852" transform="translate(263.012537, 171.977716) rotate(-5.000000) translate(-263.012537, -171.977716) "></path>
            <path d="M343.360354,31.086351 C348.883202,31.086351 353.360354,35.5635035 353.360354,41.086351 L353.360354,322.924791 C353.360354,328.447639 348.883202,332.924791 343.360354,332.924791 L230.850222,332.924791 C225.327374,332.924791 220.850222,328.447639 220.850222,322.924791 L220.850222,41.086351 C220.850222,35.5635035 225.327374,31.086351 230.850222,31.086351 L343.360354,31.086351 Z M287.60722,48.1337047 C283.449077,48.1337047 280.078235,51.5009225 280.078235,55.6545961 C280.078235,59.8082697 283.449077,63.1754875 287.60722,63.1754875 C291.765364,63.1754875 295.136205,59.8082697 295.136205,55.6545961 C295.136205,51.5009225 291.765364,48.1337047 287.60722,48.1337047 Z" id="形状结合备份-5" fill="#168EEA" transform="translate(287.105288, 182.005571) rotate(5.000000) translate(-287.105288, -182.005571) "></path>
            <path d="M366.449241,46.1281337 C371.972089,46.1281337 376.449241,50.6052862 376.449241,56.1281337 L376.449241,337.966574 C376.449241,343.489421 371.972089,347.966574 366.449241,347.966574 L253.939108,347.966574 C248.416261,347.966574 243.939108,343.489421 243.939108,337.966574 L243.939108,56.1281337 C243.939108,50.6052862 248.416261,46.1281337 253.939108,46.1281337 L366.449241,46.1281337 Z M310.696107,63.1754875 C306.537964,63.1754875 303.167122,66.5427052 303.167122,70.6963788 C303.167122,74.8500524 306.537964,78.2172702 310.696107,78.2172702 C314.854251,78.2172702 318.225092,74.8500524 318.225092,70.6963788 C318.225092,66.5427052 314.854251,63.1754875 310.696107,63.1754875 Z" id="形状结合备份-6" fill="#EE4F4F" transform="translate(310.194175, 197.047354) rotate(15.000000) translate(-310.194175, -197.047354) "></path>
        </g>
    </g>
</svg>